<svg xmlns="http://www.w3.org/2000/svg" xmlns:xlink="http://www.w3.org/1999/xlink" width="512" zoomAndPan="magnify" viewBox="0 0 384 383.999986" height="512" preserveAspectRatio="xMidYMid meet" version="1.0"><defs><g/></defs><g fill="#ffffff" fill-opacity="1"><g transform="translate(102.364973, 232.949989)"><g><path d="M 167.242188 0 L 194.203125 0 L 98.226562 -226.625 L 95.980469 -226.625 C 71.582031 -185.21875 42.691406 -126.796875 25.679688 -80.890625 C 17.976562 -60.347656 13.480469 -42.371094 11.878906 -28.246094 C 10.273438 -13.804688 13.804688 -4.171875 22.46875 -0.320312 C 24.71875 1.605469 25.679688 1.605469 27.605469 1.925781 C 42.050781 2.566406 47.507812 -9.308594 53.605469 -25.359375 C 63.878906 -48.792969 76.398438 -81.855469 130.96875 -86.992188 Z M 130.003906 -89.238281 C 74.472656 -83.78125 61.632812 -50.074219 51.039062 -26 C 45.902344 -11.234375 40.765625 0 27.925781 -0.964844 C 26.320312 -1.925781 25.359375 -1.925781 23.433594 -2.566406 C 15.730469 -5.136719 13.480469 -15.085938 14.125 -28.246094 C 15.730469 -42.050781 20.222656 -59.707031 27.925781 -80.25 C 41.410156 -117.484375 63.238281 -161.140625 82.816406 -199.019531 Z M 130.003906 -89.238281 "/></g></g></g><g fill="#ffffff" fill-opacity="1"><g transform="translate(118.315031, 372.575954)"><g><path d="M 96.222656 -220.351562 C 166.144531 -239.917969 200.464844 -162.9375 200.464844 -162.9375 L 200.464844 -196.296875 C 200.464844 -196.296875 167.109375 -242.164062 95.582031 -222.597656 C 34.960938 -206.558594 -0.640625 -143.695312 15.074219 -82.753906 C 32.394531 -21.8125 93.335938 15.074219 154.597656 -2.566406 C 177.691406 -8.660156 198.21875 -21.8125 212.332031 -39.453125 L 212.332031 -80.1875 C 207.84375 -45.546875 189.558594 -13.792969 153.957031 -4.167969 C 99.429688 10.585938 53.242188 -40.09375 39.773438 -89.167969 C 27.585938 -137.921875 41.375 -205.277344 96.222656 -220.351562 Z M 96.222656 -220.351562 "/></g></g></g></svg>